<?xml version="1.0" standalone="no"?><!DOCTYPE svg PUBLIC "-//W3C//DTD SVG 1.1//EN" "http://www.w3.org/Graphics/SVG/1.1/DTD/svg11.dtd"><svg t="1594653692862" class="icon" viewBox="0 0 1030 1024" version="1.1" xmlns="http://www.w3.org/2000/svg" p-id="3391" xmlns:xlink="http://www.w3.org/1999/xlink" width="201.171875" height="200"><defs><style type="text/css"></style></defs><path d="M325.486 226.743c-14.629-14.629-36.572-14.629-51.2 0l-263.315 256c-14.628 14.628-14.628 36.571 0 51.2l256 256c14.629 14.628 36.572 14.628 51.2 0 14.629-14.629 14.629-36.572 0-51.2L91.428 512 325.487 277.943c7.314-14.629 7.314-36.572 0-51.2z m263.314 0c-14.629 0-36.572 7.314-43.886 29.257L413.257 753.371c-7.314 21.943 7.314 36.572 29.257 43.886s36.572-7.314 43.886-29.257L618.057 270.629c7.314-14.629-7.314-36.572-29.257-43.886z m431.543 256l-256-256c-14.629-14.629-36.572-14.629-51.2 0-14.629 14.628-14.629 36.571 0 51.2L939.886 512 705.827 746.057c-14.628 14.629-14.628 36.572 0 51.2 14.629 14.629 36.572 14.629 51.2 0l256-256c14.629-14.628 14.629-43.886 7.315-58.514z" fill="" p-id="3392"></path></svg>